<svg id="Layer_1" data-name="Layer 1" xmlns="http://www.w3.org/2000/svg" viewBox="0 0 272.98 272.97"><defs><style>.cls-1,.cls-2{font-size:22px;fill:#d1d1d1;}.cls-1{font-family:FuturaPT-Book, Futura PT;}.cls-2{font-family:HoloLensMDL2Assets, HoloLens MDL2 Assets;}</style></defs><text class="cls-1" transform="matrix(0.66, -0.75, 0.75, 0.66, 48.91, 62.68)">i</text><text class="cls-1" transform="matrix(0.69, -0.72, 0.72, 0.69, 51.97, 59.2)">t</text><text class="cls-1" transform="matrix(0.73, -0.69, 0.69, 0.73, 55.21, 55.75)">s</text><text class="cls-1" transform="matrix(0.77, -0.64, 0.64, 0.77, 60.88, 50.46)"> </text><text class="cls-1" transform="matrix(0.8, -0.6, 0.6, 0.8, 64.8, 47.11)">s</text><text class="cls-1" transform="matrix(0.85, -0.53, 0.53, 0.85, 70.9, 42.44)">o</text><text class="cls-1" transform="translate(80.68 36.44) rotate(-27.93)"> </text><text class="cls-1" transform="matrix(0.91, -0.41, 0.41, 0.91, 85.17, 33.97)">n</text><text class="cls-1" transform="translate(94.63 29.85) rotate(-20.3)">i</text><text class="cls-1" transform="matrix(0.96, -0.29, 0.29, 0.96, 98.89, 28.19)">c</text><text class="cls-1" transform="translate(108.02 25.42) rotate(-11.68)">e</text><text class="cls-1" transform="translate(118.39 23.37) rotate(-7.74)"> </text><text class="cls-1" transform="translate(123.53 22.68) rotate(-5.26)">t</text><text class="cls-1" transform="matrix(1, -0.02, 0.02, 1, 128.19, 22.13)">o</text><text class="cls-1" transform="translate(139.67 21.99) rotate(2.82)"> </text><text class="cls-1" transform="translate(144.73 22.02) rotate(7.81)">m</text><text class="cls-1" transform="matrix(0.97, 0.24, -0.24, 0.97, 159.47, 24.16)">e</text><text class="cls-1" transform="translate(169.64 26.72) rotate(19.45)">e</text><text class="cls-1" transform="translate(179.54 30.32) rotate(23.28)">t</text><text class="cls-1" transform="translate(183.95 32.21) rotate(25.79)"> </text><text class="cls-1" transform="translate(188.56 34.35) rotate(29.6)">y</text><text class="cls-1" transform="matrix(0.82, 0.57, -0.57, 0.82, 197.3, 39.27)">o</text><text class="cls-1" transform="matrix(0.76, 0.65, -0.65, 0.76, 206.64, 45.83)">u</text><text class="cls-1" transform="matrix(0.72, 0.7, -0.7, 0.72, 214.39, 52.52)">,</text><text class="cls-1" transform="matrix(0.69, 0.73, -0.73, 0.69, 218.03, 56.05)"> </text><text class="cls-1" transform="matrix(0.65, 0.76, -0.76, 0.65, 221.59, 59.83)">t</text><text class="cls-1" transform="matrix(0.6, 0.8, -0.8, 0.6, 224.74, 63.33)">h</text><text class="cls-1" transform="translate(230.93 71.45) rotate(58.28)">a</text><text class="cls-1" transform="translate(236.94 81.23) rotate(63.73)">n</text><text class="cls-1" transform="matrix(0.36, 0.93, -0.93, 0.36, 241.46, 90.41)">k</text><text class="cls-1" transform="matrix(0.3, 0.95, -0.95, 0.3, 244.78, 99.09)"> </text><text class="cls-1" transform="translate(246.42 103.94) rotate(76.08)">y</text><text class="cls-1" transform="translate(248.87 113.65) rotate(81.47)">o</text><text class="cls-1" transform="matrix(0.06, 1, -1, 0.06, 250.53, 124.92)">u</text><text class="cls-1" transform="translate(251.03 135.14) rotate(90.93)"> </text><text class="cls-1" transform="translate(250.96 140.33) rotate(93.2)">f</text><text class="cls-1" transform="matrix(-0.13, 0.99, -0.99, -0.13, 250.79, 145.57)">o</text><text class="cls-1" transform="matrix(-0.21, 0.98, -0.98, -0.21, 249.22, 156.93)">r</text><text class="cls-1" transform="matrix(-0.26, 0.97, -0.97, -0.26, 247.86, 163.34)"> </text><text class="cls-1" transform="translate(246.61 168.32) rotate(108.45)">v</text><text class="cls-1" transform="translate(243.59 177.15) rotate(111.96)">i</text><text class="cls-1" transform="translate(241.9 181.43) rotate(115.07)">s</text><text class="cls-1" transform="translate(238.58 188.45) rotate(118.18)">i</text><text class="cls-1" transform="translate(236.38 192.54) rotate(120.54)">t</text><text class="cls-1" transform="matrix(-0.54, 0.84, -0.84, -0.54, 233.95, 196.65)">i</text><text class="cls-1" transform="matrix(-0.6, 0.8, -0.8, -0.6, 231.55, 200.54)">n</text><text class="cls-1" transform="translate(225.47 208.78) rotate(132.01)">g</text><text class="cls-1" transform="translate(217.68 217.26) rotate(136.13)"> </text><text class="cls-1" transform="translate(214.2 220.91) rotate(141.11)">m</text><text class="cls-1" transform="translate(202.51 230.18) rotate(147.31)">y</text><text class="cls-1" transform="translate(193.96 235.57) rotate(151.12)"> </text><text class="cls-1" transform="matrix(-0.91, 0.4, -0.4, -0.91, 189.64, 238.2)">w</text><text class="cls-1" transform="matrix(-0.95, 0.3, -0.3, -0.95, 176.03, 244.1)">e</text><text class="cls-1" transform="translate(166.06 247.28) rotate(168.01)">b</text><text class="cls-1" transform="matrix(-0.99, 0.13, -0.13, -0.99, 154.81, 249.59)">s</text><text class="cls-1" transform="matrix(-1, 0.07, -0.07, -1, 147.09, 250.51)">i</text><text class="cls-1" transform="translate(142.45 250.85) rotate(178.23)">t</text><text class="cls-1" transform="translate(137.77 251.09) rotate(-178.03)">e</text><text class="cls-1" transform="matrix(-0.99, -0.1, 0.1, -0.99, 127.22, 250.63)">,</text><text class="cls-1" transform="translate(122.17 250.12) rotate(-171.61)"> </text><text class="cls-1" transform="matrix(-0.98, -0.19, 0.19, -0.98, 117.04, 249.36)">I</text><text class="cls-1" transform="translate(111.68 248.31) rotate(-166.25)"> </text><text class="cls-1" transform="matrix(-0.95, -0.3, 0.3, -0.95, 106.7, 247.18)">h</text><text class="cls-1" transform="translate(97.24 244.22) rotate(-157.07)">o</text><text class="cls-1" transform="translate(86.73 239.79) rotate(-151.34)">p</text><text class="cls-1" transform="translate(76.7 234.28) rotate(-145.86)">e</text><text class="cls-1" transform="translate(68.01 228.28) rotate(-141.95)"> </text><text class="cls-1" transform="matrix(-0.76, -0.65, 0.65, -0.76, 63.94, 225.09)">t</text><text class="cls-1" transform="matrix(-0.71, -0.7, 0.7, -0.71, 60.3, 222.13)">o</text><text class="cls-1" transform="matrix(-0.66, -0.75, 0.75, -0.66, 52.17, 213.98)"> </text><text class="cls-1" transform="translate(48.75 210.15) rotate(-128.12)">s</text><text class="cls-1" transform="translate(43.97 204.15) rotate(-123.59)">e</text><text class="cls-1" transform="translate(38.16 195.41) rotate(-118.34)">e</text><text class="cls-1" transform="translate(33.24 186.09) rotate(-114.42)"> </text><text class="cls-1" transform="matrix(-0.35, -0.94, 0.94, -0.35, 31.04, 181.44)">y</text><text class="cls-1" transform="translate(27.49 172.11) rotate(-105.19)">o</text><text class="cls-1" transform="translate(24.53 161.09) rotate(-99.77)">u</text><text class="cls-1" transform="translate(22.88 150.98) rotate(-95.92)"> </text><text class="cls-1" transform="translate(22.31 145.87) rotate(-92.72)">s</text><text class="cls-1" transform="translate(21.87 138.2) rotate(-88.02)">o</text><text class="cls-1" transform="translate(22.25 126.8) rotate(-82.35)">o</text><text class="cls-1" transform="translate(23.8 115.48) rotate(-76.91)">n</text><text class="cls-1" transform="translate(26.22 105.47) rotate(-73.03)"> </text><text class="cls-1" transform="matrix(0.34, -0.94, 0.94, 0.34, 27.73, 100.51)"> </text><text class="cls-1" transform="translate(29.47 95.63) rotate(-67.81)"> </text><text class="cls-2" transform="translate(30.87 90.85) rotate(-61.1)"></text></svg>